<mxfile host="app.diagrams.net" modified="2023-07-05T21:53:04.458Z" agent="Mozilla/5.0 (X11; Linux x86_64) AppleWebKit/537.36 (KHTML, like Gecko) Chrome/114.0.0.0 Safari/537.36 Edg/114.0.1823.67" version="21.6.1" etag="7HQyfNLe2ISRt9mRXDab" type="github">
  <diagram name="Page-1" id="UpKFktOhmruzF5bWiHRq">
    <mxGraphModel>
      <root>
        <mxCell id="0" />
        <mxCell id="1" parent="0" />
      </root>
    </mxGraphModel>
  </diagram>
</mxfile>
